PathFileType	4	(X/Y/Z)	G:\TennisProject\Miami_Dimitrov_Sinner_masked_Sports2D\Miami_Dimitrov_Sinner_masked_Sports2D_px_person01.trc
DataRate	CameraRate	NumFrames	NumMarkers	Units	OrigDataRate	OrigDataStartFrame	OrigNumFrames
25	25	4	22	m	25	62	499
Frame#	Time	Hip			RHip			RKnee			RAnkle			RBigToe			RSmallToe			RHeel			LHip			LKnee			LAnkle			LBigToe			LSmallToe			LHeel			Neck			Head			Nose			RShoulder			RElbow			RWrist			LShoulder			LElbow			LWrist		
		X1	Y1	Z1	X2	Y2	Z2	X3	Y3	Z3	X4	Y4	Z4	X5	Y5	Z5	X6	Y6	Z6	X7	Y7	Z7	X8	Y8	Z8	X9	Y9	Z9	X10	Y10	Z10	X11	Y11	Z11	X12	Y12	Z12	X13	Y13	Z13	X14	Y14	Z14	X15	Y15	Z15	X16	Y16	Z16	X17	Y17	Z17	X18	Y18	Z18	X19	Y19	Z19	X20	Y20	Z20	X21	Y21	Z21	X22	Y22	Z22
62	2.48	720.436672201595	743.0910227931339	0.0	730.1160529169784	741.9058673726986	0.0	715.5025797326625	796.2245069857028	0.0	708.9794961228968	851.7635859136192	0.0	683.6042193255065	863.881166847388	0.0	689.4299254910984	860.6499491020262	0.0	714.0293045641879	859.8642269552447	0.0	711.6886154791845	749.24897484103	0.0	708.3117886147415	809.4411938872908	0.0	749.0181036945596	845.7154215644737	0.0	754.8757934840285	872.2672303580723	0.0	752.7427621803163	869.3987771186943	0.0	760.5652238737453	850.1938892254132	0.0	684.7526473825976	675.5314421394592	0.0	667.739855023211	648.7566444889347	0.0	671.0851608679129	667.5920417593303	0.0	706.8608698252978	668.3725136210558	0.0	737.025823652948	659.9245155442549	0.0	752.7259537730142	649.5368740644424	0.0	677.7475567660795	699.024169291434	0.0	687.4024916681718	732.9670586419189	0.0	696.2325073617217	768.2284829379306	0.0
63	2.52	716.215076237664	743.1047696743091	0.0	725.6791207090969	744.3242958081628	0.0	716.0731485003308	794.8238892711332	0.0	714.5565569832422	850.5607819456983	0.0	692.6695469106918	864.1228449728612	0.0	698.5465988865759	861.3282701326178	0.0	719.3254071067538	858.8130416138522	0.0	706.2561168249489	750.0421124873109	0.0	693.8180009902048	809.0458241969689	0.0	731.9018599386917	843.8553590501683	0.0	734.2503666273027	867.5148379771599	0.0	732.5570518182406	865.6877513321729	0.0	743.191279557264	848.9894780205207	0.0	682.6592802826257	673.663906950421	0.0	669.1148150061609	646.2845960360919	0.0	669.1180498666108	665.688691793539	0.0	704.6844694890647	670.7821893834812	0.0	732.6389236160562	668.6769999445131	0.0	744.9469830414112	662.7749563694297	0.0	674.7500809517237	695.0578967747173	0.0	686.8609336092163	727.0856242803953	0.0	700.0892372634705	759.6794449600488	0.0
64	2.56	712.5807573879812	745.9259870070524	0.0	723.3850852225853	747.544120896775	0.0	716.3258389047353	794.5265523499336	0.0	723.2630318928293	849.8954663695158	0.0	705.5405952252296	863.035526894258	0.0	711.1134029165519	861.3327944485984	0.0	727.9816408181538	858.7168025478927	0.0	701.1471423795417	752.5155440219671	0.0	680.3170786775024	808.1099717473106	0.0	711.3949076981608	849.0950635101003	0.0	702.9543060106413	871.1011762102079	0.0	703.9602444669833	870.3479805732179	0.0	721.5013314950461	854.3214092395336	0.0	680.3387744498302	674.0267871937288	0.0	669.4848801648991	646.3189957811052	0.0	668.4017929031646	664.5184160417847	0.0	703.6511007015492	674.2890407257445	0.0	729.3771712799393	676.9079951128706	0.0	741.5729139432677	674.2961876929321	0.0	670.4631086643499	694.239213412941	0.0	683.5156018103986	725.7146363369218	0.0	697.8777388042249	758.0649437311852	0.0
65	2.6	709.4778988476751	750.3398454651694	0.0	722.1456581978543	749.7104646762928	0.0	716.6396134127876	795.0684501666261	0.0	732.5669182585029	850.0798182070307	0.0	719.2256450579509	859.0444318559743	0.0	724.9347804374034	857.8295460571708	0.0	737.2511593386729	858.5090740300877	0.0	696.8980387490512	754.9779895783206	0.0	670.4278030768023	807.2369814371544	0.0	686.4946463473568	859.8206286664107	0.0	668.7902762611052	876.6220148855873	0.0	671.2080135754591	877.6466481285048	0.0	693.7364015744566	865.3630559072717	0.0	678.5127557665712	677.0349002886617	0.0	667.6389414488373	648.4399957645932	0.0	667.9823353013749	666.3477298524997	0.0	702.9509923432679	678.2013450291681	0.0	728.0515738127921	683.8959789381757	0.0	744.2032296879315	683.1605597955493	0.0	666.635471587873	696.6178666353725	0.0	678.1175049865564	730.354239893118	0.0	689.5650526966642	765.5366323596888	0.0
